<svg width="308" height="94" viewBox="0 0 308 94" fill="none" xmlns="http://www.w3.org/2000/svg">
<g filter="url(#filter0_d_10904_60)">
<path d="M4 43C4 19.2518 23.2518 0 47 0H261C284.748 0 304 19.2518 304 43V43C304 66.7482 284.748 86 261 86H47C23.2518 86 4 66.7482 4 43V43Z" fill="#E3F5F5"/>
<path d="M47 0.5H261C284.472 0.5 303.5 19.5279 303.5 43C303.5 66.4721 284.472 85.5 261 85.5H47C23.5279 85.5 4.5 66.4721 4.5 43C4.5 19.5279 23.5279 0.5 47 0.5Z" stroke="white"/>
</g>
<defs>
<filter id="filter0_d_10904_60" x="0" y="0" width="308" height="94" filterUnits="userSpaceOnUse" color-interpolation-filters="sRGB">
<feFlood flood-opacity="0" result="BackgroundImageFix"/>
<feColorMatrix in="SourceAlpha" type="matrix" values="0 0 0 0 0 0 0 0 0 0 0 0 0 0 0 0 0 0 127 0" result="hardAlpha"/>
<feOffset dy="4"/>
<feGaussianBlur stdDeviation="2"/>
<feComposite in2="hardAlpha" operator="out"/>
<feColorMatrix type="matrix" values="0 0 0 0 0 0 0 0 0 0 0 0 0 0 0 0 0 0 0.25 0"/>
<feBlend mode="normal" in2="BackgroundImageFix" result="effect1_dropShadow_10904_60"/>
<feBlend mode="normal" in="SourceGraphic" in2="effect1_dropShadow_10904_60" result="shape"/>
</filter>
</defs>
</svg>
