<svg width="360" height="63" viewBox="0 0 360 63" fill="none" xmlns="http://www.w3.org/2000/svg">
<g style="mix-blend-mode:darken" filter="url(#filter0_d_10920_122)">
<path d="M4.86099 27.5C4.86099 12.3122 17.1732 0 32.361 0H180.116H327.87C343.058 0 355.37 12.3122 355.37 27.5V27.5C355.37 42.6878 343.058 55 327.87 55H32.361C17.1732 55 4.86099 42.6878 4.86099 27.5V27.5Z" fill="#D9D9D9" fill-opacity="0.52" shape-rendering="crispEdges"/>
<path d="M32.361 0.5H180.116H327.87C342.782 0.5 354.87 12.5883 354.87 27.5C354.87 42.4117 342.782 54.5 327.87 54.5H32.361C17.4493 54.5 5.36099 42.4117 5.36099 27.5C5.36099 12.5883 17.4493 0.5 32.361 0.5Z" stroke="black" shape-rendering="crispEdges"/>
</g>
<defs>
<filter id="filter0_d_10920_122" x="0.86087" y="0" width="358.509" height="63" filterUnits="userSpaceOnUse" color-interpolation-filters="sRGB">
<feFlood flood-opacity="0" result="BackgroundImageFix"/>
<feColorMatrix in="SourceAlpha" type="matrix" values="0 0 0 0 0 0 0 0 0 0 0 0 0 0 0 0 0 0 127 0" result="hardAlpha"/>
<feOffset dy="4"/>
<feGaussianBlur stdDeviation="2"/>
<feComposite in2="hardAlpha" operator="out"/>
<feColorMatrix type="matrix" values="0 0 0 0 0 0 0 0 0 0 0 0 0 0 0 0 0 0 0.25 0"/>
<feBlend mode="normal" in2="BackgroundImageFix" result="effect1_dropShadow_10920_122"/>
<feBlend mode="normal" in="SourceGraphic" in2="effect1_dropShadow_10920_122" result="shape"/>
</filter>
</defs>
</svg>
