<svg width="1020" height="277" viewBox="0 0 1020 277" fill="none" xmlns="http://www.w3.org/2000/svg">
<g style="mix-blend-mode:lighten" filter="url(#filter0_f_10904_22)">
<path d="M3.99988 14C3.99988 8.47715 8.47703 4 13.9999 4H1006C1011.52 4 1016 8.47715 1016 14V262.975C1016 268.498 1011.52 272.975 1006 272.975H13.9999C8.47704 272.975 3.99988 268.498 3.99988 262.975V14Z" fill="#D9D9D9" fill-opacity="0.52"/>
<path d="M13.9999 4.5H1006C1011.25 4.5 1015.5 8.7533 1015.5 14V262.975C1015.5 268.221 1011.25 272.475 1006 272.475H13.9999C8.75319 272.475 4.49988 268.221 4.49988 262.975V14C4.49988 8.75329 8.75317 4.5 13.9999 4.5Z" stroke="black"/>
</g>
<defs>
<filter id="filter0_f_10904_22" x="-0.00012207" y="0" width="1020" height="276.975" filterUnits="userSpaceOnUse" color-interpolation-filters="sRGB">
<feFlood flood-opacity="0" result="BackgroundImageFix"/>
<feBlend mode="normal" in="SourceGraphic" in2="BackgroundImageFix" result="shape"/>
<feGaussianBlur stdDeviation="2" result="effect1_foregroundBlur_10904_22"/>
</filter>
</defs>
</svg>
