<svg width="540" height="560" viewBox="0 0 540 560" fill="none" xmlns="http://www.w3.org/2000/svg">
<g style="mix-blend-mode:screen" filter="url(#filter0_f_11017_55)">
<path d="M525.492 4.14355H14.1068C8.85717 4.14355 4.6015 8.10041 4.6015 12.9814V546.743C4.6015 551.624 8.85717 555.581 14.1068 555.581H525.492C530.742 555.581 534.997 551.624 534.997 546.743V12.9814C534.997 8.10041 530.742 4.14355 525.492 4.14355Z" fill="#D9D9D9" fill-opacity="0.52"/>
<path d="M525.492 4.58545H14.1068C9.11967 4.58545 5.07678 8.34446 5.07678 12.9814V546.743C5.07678 551.38 9.11967 555.139 14.1068 555.139H525.492C530.479 555.139 534.522 551.38 534.522 546.743V12.9814C534.522 8.34446 530.479 4.58545 525.492 4.58545Z" stroke="black"/>
</g>
<defs>
<filter id="filter0_f_11017_55" x="0.576782" y="0.0854492" width="538.445" height="559.554" filterUnits="userSpaceOnUse" color-interpolation-filters="sRGB">
<feFlood flood-opacity="0" result="BackgroundImageFix"/>
<feBlend mode="normal" in="SourceGraphic" in2="BackgroundImageFix" result="shape"/>
<feGaussianBlur stdDeviation="2" result="effect1_foregroundBlur_11017_55"/>
</filter>
</defs>
</svg>
