<svg width="318" height="63" viewBox="0 0 318 63" fill="none" xmlns="http://www.w3.org/2000/svg">
<g style="mix-blend-mode:darken" filter="url(#filter0_d_10904_50)">
<path d="M4 27.5C4 12.3122 16.3122 0 31.5 0H286.5C301.688 0 314 12.3122 314 27.5V27.5C314 42.6878 301.688 55 286.5 55H31.5C16.3122 55 4 42.6878 4 27.5V27.5Z" fill="#D9D9D9" fill-opacity="0.52" shape-rendering="crispEdges"/>
<path d="M31.5 0.5H286.5C301.412 0.5 313.5 12.5883 313.5 27.5C313.5 42.4117 301.412 54.5 286.5 54.5H31.5C16.5883 54.5 4.5 42.4117 4.5 27.5C4.5 12.5883 16.5883 0.5 31.5 0.5Z" stroke="black" shape-rendering="crispEdges"/>
</g>
<defs>
<filter id="filter0_d_10904_50" x="0" y="0" width="318" height="63" filterUnits="userSpaceOnUse" color-interpolation-filters="sRGB">
<feFlood flood-opacity="0" result="BackgroundImageFix"/>
<feColorMatrix in="SourceAlpha" type="matrix" values="0 0 0 0 0 0 0 0 0 0 0 0 0 0 0 0 0 0 127 0" result="hardAlpha"/>
<feOffset dy="4"/>
<feGaussianBlur stdDeviation="2"/>
<feComposite in2="hardAlpha" operator="out"/>
<feColorMatrix type="matrix" values="0 0 0 0 0 0 0 0 0 0 0 0 0 0 0 0 0 0 0.25 0"/>
<feBlend mode="normal" in2="BackgroundImageFix" result="effect1_dropShadow_10904_50"/>
<feBlend mode="normal" in="SourceGraphic" in2="effect1_dropShadow_10904_50" result="shape"/>
</filter>
</defs>
</svg>
