<svg width="388" height="63" viewBox="0 0 388 63" fill="none" xmlns="http://www.w3.org/2000/svg">
<g style="mix-blend-mode:darken" filter="url(#filter0_d_10904_49)">
<path d="M4 27.5C4 12.3122 16.3122 0 31.5 0H194H356.5C371.688 0 384 12.3122 384 27.5V27.5C384 42.6878 371.688 55 356.5 55H31.5C16.3122 55 4 42.6878 4 27.5V27.5Z" fill="white"/>
<path d="M31.5 0.5H194H356.5C371.412 0.5 383.5 12.5883 383.5 27.5C383.5 42.4117 371.412 54.5 356.5 54.5H31.5C16.5883 54.5 4.5 42.4117 4.5 27.5C4.5 12.5883 16.5883 0.5 31.5 0.5Z" stroke="black"/>
</g>
<defs>
<filter id="filter0_d_10904_49" x="0" y="0" width="388" height="63" filterUnits="userSpaceOnUse" color-interpolation-filters="sRGB">
<feFlood flood-opacity="0" result="BackgroundImageFix"/>
<feColorMatrix in="SourceAlpha" type="matrix" values="0 0 0 0 0 0 0 0 0 0 0 0 0 0 0 0 0 0 127 0" result="hardAlpha"/>
<feOffset dy="4"/>
<feGaussianBlur stdDeviation="2"/>
<feComposite in2="hardAlpha" operator="out"/>
<feColorMatrix type="matrix" values="0 0 0 0 0 0 0 0 0 0 0 0 0 0 0 0 0 0 0.25 0"/>
<feBlend mode="normal" in2="BackgroundImageFix" result="effect1_dropShadow_10904_49"/>
<feBlend mode="normal" in="SourceGraphic" in2="effect1_dropShadow_10904_49" result="shape"/>
</filter>
</defs>
</svg>
