<svg width="105" height="38" viewBox="0 0 105 38" fill="none" xmlns="http://www.w3.org/2000/svg">
<g style="mix-blend-mode:darken" filter="url(#filter0_d_10926_143)">
<path d="M4.5 15C4.5 6.71573 11.2157 0 19.5 0H52.5H85.5C93.7843 0 100.5 6.71573 100.5 15V15C100.5 23.2843 93.7843 30 85.5 30H19.5C11.2157 30 4.5 23.2843 4.5 15V15Z" fill="#D9D9D9" fill-opacity="0.52" shape-rendering="crispEdges"/>
<path d="M19.5 0.5H52.5H85.5C93.5081 0.5 100 6.99187 100 15C100 23.0081 93.5081 29.5 85.5 29.5H19.5C11.4919 29.5 5 23.0081 5 15C5 6.99187 11.4919 0.5 19.5 0.5Z" stroke="black" shape-rendering="crispEdges"/>
</g>
<defs>
<filter id="filter0_d_10926_143" x="0.5" y="0" width="104" height="38" filterUnits="userSpaceOnUse" color-interpolation-filters="sRGB">
<feFlood flood-opacity="0" result="BackgroundImageFix"/>
<feColorMatrix in="SourceAlpha" type="matrix" values="0 0 0 0 0 0 0 0 0 0 0 0 0 0 0 0 0 0 127 0" result="hardAlpha"/>
<feOffset dy="4"/>
<feGaussianBlur stdDeviation="2"/>
<feComposite in2="hardAlpha" operator="out"/>
<feColorMatrix type="matrix" values="0 0 0 0 0 0 0 0 0 0 0 0 0 0 0 0 0 0 0.25 0"/>
<feBlend mode="normal" in2="BackgroundImageFix" result="effect1_dropShadow_10926_143"/>
<feBlend mode="normal" in="SourceGraphic" in2="effect1_dropShadow_10926_143" result="shape"/>
</filter>
</defs>
</svg>
